<?xml version="1.0" encoding="UTF-8"?>
<svg width="240px" height="64px" viewBox="0 0 240 64" version="1.1" xmlns="http://www.w3.org/2000/svg" xmlns:xlink="http://www.w3.org/1999/xlink">
    <defs>
        <rect id="path-1" x="1" y="1" width="14" height="14" rx="7"></rect>
        <rect id="path-3" x="1.0178833" y="1.0178833" width="14" height="14" rx="7"></rect>
    </defs>
    <g id="Reactions-Sprite-Copy" stroke="none" stroke-width="1" fill="none" fill-rule="evenodd">
        <g id="Group">
            <g id="Reactions/Like-48-Regular">
                <g id="Asset-46">
                    <rect id="Rectangle" fill="#FFFFFF" fill-rule="nonzero" opacity="0" x="0" y="0" width="48" height="48"></rect>
                    <path d="M25.39,22 L10.13,22 C8.13,22 6.93,24.11 7.01,25.92 C7.13233873,27.6408071 8.58535446,28.9617304 10.31,28.92 L10.88,28.92 C10.1452528,28.9356353 9.44733253,29.244713 8.94195182,29.7782748 C8.43657111,30.3118366 8.16578195,31.0254856 8.19,31.76 C8.19076536,33.242598 9.3318569,34.475151 10.81,34.59 C10.81,34.59 10.81,34.59 10.81,34.59 C9.94186214,35.270583 9.54830389,36.3935848 9.80167801,37.467204 C10.0550521,38.5408232 10.9091763,39.3693719 11.99,39.59 C11.99,39.59 11.99,39.59 11.99,39.59 C11.6557948,40.2000427 11.5528281,40.9101576 11.7,41.59 C12.0542136,42.9456173 13.2996093,43.8755128 14.7,43.83 L15.7,43.83 L22.88,43.83 C23.9494683,43.823645 25.0141067,43.6859472 26.05,43.42 L31.18,41.92 C31.48,41.83 35.92,41.92 37.92,41.92 C41.49,41.78 42.45,25.4 37.92,25.4 C37.92,25.4 36.27,25.46 35.92,25.4 C35.76,25.4 35.4,24.72 34.51,23.76 L34.43,23.66 C33.13,22.25 31.65,20.43 30.61,19.4 C28.08,16.92 25.98,14.79 24.52,11.56 C23.8,9.83 23.71,9 22,9 C20.573171,9.20054882 19.5383535,10.461461 19.62,11.9 C19.6913481,12.8555147 19.811505,13.8067565 19.98,14.75 C20.61,18.13 23.41,21.83 23.49,22" id="Path" fill="#1485BD" fill-rule="nonzero"></path>
                    <path d="M23.49,23 L10.13,23 C8.13,23 6.92,24.19 7,26 C7.11748725,27.727195 8.57960628,29.0523784 10.31,29 L10.88,29 C10.1461432,29.018303 9.44981152,29.3282021 8.94500052,29.8611625 C8.44018952,30.3941228 8.16849396,31.1062301 8.19,31.84 C8.19076536,33.322598 9.3318569,34.555151 10.81,34.67 C10.81,34.67 10.81,34.67 10.81,34.72 C9.94186214,35.400583 9.54830389,36.5235848 9.80167801,37.597204 C10.0550521,38.6708232 10.9091763,39.4993719 11.99,39.72 C11.6557948,40.3300427 11.5528281,41.0401576 11.7,41.72 C12.0542136,43.0756173 13.2996093,44.0055128 14.7,43.96 L15.7,43.96 L22.88,43.96 C23.9494683,43.953645 25.0141067,43.8159472 26.05,43.55 L31.18,42.05 C31.48,41.96 35.92,42.05 37.92,42.05 C41.49,41.91 42.45,25.53 37.92,25.53 C37.92,25.53 36.27,25.59 35.92,25.53 C35.76,25.53 35.4,24.85 34.51,23.89 L34.43,23.79 C33.13,22.38 31.65,20.56 30.61,19.53 C28.08,17.05 25.98,14.93 24.52,11.69 C23.8,9.87 23.71,9 22,9 C21.2995318,9.06824533 20.6549811,9.41232595 20.2085011,9.95635611 C19.7620212,10.5003863 19.5502885,11.1996762 19.62,11.9 C19.6913481,12.8555147 19.811505,13.8067565 19.98,14.75 C20.61,18.13 23.41,22.75 23.49,22.96 L23.49,23 Z" id="Path" stroke="#004B7C" stroke-width="2" stroke-linecap="round" stroke-linejoin="round"></path>
                </g>
            </g>
            <g id="Reactions/Praise-48-Regular" transform="translate(48.000000, 0.000000)">
                <g id="Asset-45">
                    <rect id="Rectangle" fill="#FFFFFF" fill-rule="nonzero" opacity="0" x="0" y="0" width="48" height="48"></rect>
                    <path d="M39.33,30.67 L37.73,29.47 C37.73,29.47 37.07,23.12 35.91,21.89 C33.82,19.69 32.49,16.47 31.61,13.43 C31.06,11.55 30.67,10.88 28.98,10.85 C28.2950438,10.9154662 27.6649451,11.2528647 27.2307655,11.7866613 C26.7965858,12.3204579 26.5945903,13.0060672 26.67,13.69 C26.6964574,14.5437832 26.7732575,15.3952622 26.9,16.24 C27.3451655,18.4816785 28.015221,20.6727599 28.9,22.78 L28.25,22.39 L12.81,10.65 C11.66,9.78 10,9.39 8.88,10.89 C7.76,12.39 8.66,13.78 9.81,14.64 L17.81,20.64 L20.2,22.45 L7.41,12.84 C6.26,11.97 4.6,11.58 3.47,13.08 C2.34,14.58 3.26,16 4.4,16.83 L12.4,22.83 L17.2,26.43 L6.8,18.64 C5.65,17.77 3.99,17.38 2.86,18.88 C1.73,20.38 2.65,21.77 3.8,22.63 L11.8,28.63 L15.8,31.63 L7.8,25.63 C6.65,24.76 5.02,24.34 3.94,25.77 C2.86,27.2 3.65,28.77 4.8,29.63 L19.34,40.63 C21.4652092,42.2068248 24.1382397,42.856144 26.75,42.43 C27.56,43.02 29.15,44.23 29.15,44.23 C31.2878266,42.5814224 33.1713472,40.6271434 34.74,38.43 C36.5472698,36.017698 38.08635,33.4156802 39.33,30.67 Z" id="Path" fill="#49992A" fill-rule="nonzero"></path>
                    <path d="M29.73,23.48 L27.32,21.67" id="Path" fill="#93D870" fill-rule="nonzero"></path>
                    <path d="M39.21,31 L39.33,30.72" id="Path" stroke="#43722B" stroke-width="2" stroke-linecap="round" stroke-linejoin="round"></path>
                    <path d="M37.6,28.4 C37.35,26.53 37.19,20.93 36.33,20.02 C34.24,17.81 32.49,16.47 31.61,13.43 C31.06,11.55 30.67,10.88 28.98,10.85 C28.2950438,10.9154662 27.6649451,11.2528647 27.2307655,11.7866613 C26.7965858,12.3204579 26.5945903,13.0060672 26.67,13.69 C26.6964574,14.5437832 26.7732575,15.3952622 26.9,16.24 C27.375364,18.5977095 28.0442963,20.9122153 28.9,23.16 L12.81,11 C11.66,10.14 10,9.75 8.88,11.25 C7.76,12.75 8.66,14.13 9.81,15 L17.81,21 L20.2,22.8 L7.41,13.21 C6.26,12.35 4.6,11.96 3.47,13.46 C2.34,14.96 3.26,16.34 4.4,17.21 L12.4,23.21 L17.2,26.82 L6.8,19 C5.65,18.14 3.99,17.75 2.86,19.25 C1.73,20.75 2.65,22.14 3.8,23 L11.8,29 L15.8,32 L7.8,26 C6.65,25.14 5.02,24.71 3.94,26.15 C2.86,27.59 3.65,29.15 4.8,30 L19.33,40.68 C21.4552092,42.2568248 24.1282397,42.906144 26.74,42.48" id="Path" stroke="#165209" stroke-width="2" stroke-linecap="round" stroke-linejoin="round"></path>
                    <path d="M29.73,23.48 L27.32,21.67" id="Path" stroke="#43722B" stroke-width="2" stroke-linecap="round" stroke-linejoin="round"></path>
                    <path d="M45.93,31.87 L44.33,30.67 C44.33,30.67 43.67,24.31 42.51,23.09 C40.4469191,20.6370296 38.9756613,17.7424154 38.21,14.63 C37.66,12.75 37.27,12.08 35.58,12.05 C34.8958843,12.112946 34.2657771,12.4482186 33.8313541,12.9804339 C33.396931,13.5126492 33.1946526,14.1971389 33.27,14.88 C33.2960365,15.7338086 33.3728389,16.5853124 33.5,17.43 C34.13,20.73 34.81,23.43 34.89,23.59 L19.65,12.19 C18.5,11.32 16.84,10.93 15.71,12.43 C14.58,13.93 15.49,15.32 16.64,16.18 L24.64,22.18 L27,24 L14.24,14.38 C13.09,13.52 11.43,13.13 10.31,14.63 C9.19,16.13 10.09,17.51 11.24,18.38 L19.24,24.38 L24,28 L13.64,20.18 C12.49,19.31 10.82,18.93 9.7,20.42 C8.58,21.91 9.48,23.31 10.63,24.18 L18.63,30.18 L22.63,33.18 L14.63,27.18 C13.48,26.32 11.84,25.89 10.76,27.33 C9.68,28.77 10.47,30.33 11.62,31.18 L25.93,41.88 C28.46,43.75 33,44 32.93,44 C33.8292746,44.5583795 34.768486,45.0497108 35.74,45.47 C38.6212262,44.9572028 41.1952657,43.3569307 42.93,41 C44.7873021,38.3085464 45.828929,35.1385285 45.93,31.87 Z" id="Path" fill="#6DAE4F" fill-rule="nonzero"></path>
                    <path d="M36.33,24.67 L33.92,22.87" id="Path" fill="#93D870" fill-rule="nonzero"></path>
                    <path d="M12,1.65 L12.79,5.17" id="Path" stroke="#165209" stroke-width="2" stroke-linecap="round" stroke-linejoin="round"></path>
                    <path d="M23.2,5.95 L20.26,8.03" id="Path" stroke="#165209" stroke-width="2" stroke-linecap="round" stroke-linejoin="round"></path>
                    <path d="M18.68,1 L16.53,6.6" id="Path" stroke="#165209" stroke-width="2" stroke-linecap="round" stroke-linejoin="round"></path>
                    <path d="M45.77,31.88 C45.050294,31.1160967 44.4984607,30.2100001 44.15,29.22 C43.97,28.47 43.92,27.69 43.78,26.93 C43.56,25.76 43.37,24 42.51,23.09 C40.4469191,20.6370296 38.9756613,17.7424154 38.21,14.63 C37.66,12.75 37.27,12.08 35.58,12.05 C34.8958843,12.112946 34.2657771,12.4482186 33.8313541,12.9804339 C33.396931,13.5126492 33.1946526,14.1971389 33.27,14.88 C33.2960365,15.7338086 33.3728389,16.5853124 33.5,17.43 C34.13,20.73 34.81,23.43 34.89,23.59 L19.65,12.19 C18.5,11.32 16.84,10.93 15.71,12.43 C14.58,13.93 15.49,15.32 16.64,16.18 L24.64,22.18 L27,24 L14.24,14.38 C13.09,13.52 11.43,13.13 10.31,14.63 C9.19,16.13 10.09,17.51 11.24,18.38 L19.24,24.38 L24,28 L13.64,20.18 C12.49,19.31 10.82,18.93 9.7,20.42 C8.58,21.91 9.48,23.31 10.63,24.18 L18.63,30.18 L22.63,33.18 L14.63,27.18 C13.48,26.32 11.84,25.89 10.76,27.33 C9.68,28.77 10.47,30.33 11.62,31.18 L25.93,41.88 C27.1104958,42.7640674 28.4795287,43.3630194 29.93,43.63 C30.57,43.75 31.25,43.81 32,43.95 C33.0741778,44.1137843 34.1144814,44.4515452 35.08,44.95 C35.7508158,45.271221 36.5170379,45.331806 37.23,45.12 C39.7272357,44.2476085 41.9070426,42.6493157 43.49,40.53 C44.9934806,38.4947272 45.8568344,36.0578416 45.97,33.53 C46.0645771,32.9722385 45.9950953,32.3990134 45.77,31.88 Z" id="Path" stroke="#165209" stroke-width="2" stroke-linecap="round" stroke-linejoin="round"></path>
                </g>
            </g>
            <g id="Reactions/Interest-48-Regular" transform="translate(144.000000, 0.000000)">
                <g id="Asset-43">
                    <rect id="Rectangle" fill="#FFFFFF" fill-rule="nonzero" opacity="0" x="0" y="0" width="48" height="48"></rect>
                    <path d="M27,44 L21,44 C19.8954305,44 19,43.1045695 19,42 L19,37 L29,37 L29,42 C29,43.1045695 28.1045695,44 27,44 Z" id="Path" fill="#C07800" fill-rule="nonzero"></path>
                    <path d="M21,37 L29,37.07 C28.8392148,35.8828266 28.8695996,34.6775637 29.09,33.5 C29.2741568,32.9235221 29.5366086,32.3750651 29.87,31.87 C30.0559289,31.6191248 30.2670271,31.387922 30.5,31.18 L30.64,31.06 C33.3330186,28.8844698 34.9285291,25.6312386 35,22.17 C35,16.0948678 30.0751322,11.17 24,11.17 C17.9248678,11.17 13,16.0948678 13,22.17 L13,22.23 C13.0384918,25.5830132 14.5486879,28.7496713 17.13,30.89 C17.8583454,31.7246548 18.4552009,32.665461 18.9,33.68 C19.3359771,34.6550746 19.6063497,35.6960093 19.7,36.76 L20,37" id="Path" fill="#F5BB5C" fill-rule="nonzero"></path>
                    <path d="M12,5.82 L14.42,8.97" id="Path" stroke="#5D3B01" stroke-width="1.91" stroke-linecap="round" stroke-linejoin="round"></path>
                    <path d="M36,5.82 L33.58,8.97" id="Path" stroke="#5D3B01" stroke-width="1.91" stroke-linecap="round" stroke-linejoin="round"></path>
                    <path d="M24,2 L24,6.77" id="Path" stroke="#5D3B01" stroke-width="1.91" stroke-linecap="round" stroke-linejoin="round"></path>
                    <path d="M27,44 L21,44 C19.9030542,43.8964352 19.0499639,43.0006904 19,41.9 L19,37 L29,37 L29,41.9 C28.9500361,43.0006904 28.0969458,43.8964352 27,44 Z" id="Path" stroke="#5D3B01" stroke-width="2" stroke-linecap="round" stroke-linejoin="round"></path>
                    <path d="M29,38 C29,34.37 29.41,33.53 29.41,33.53 C29.7413448,32.3703707 30.3970729,31.3295324 31.3,30.53 C31.7598535,30.1019344 32.1876693,29.6406955 32.58,29.15 C33.3515875,28.1729879 33.9625795,27.0792783 34.39,25.91 C34.8108669,24.7213819 35.0305473,23.4708936 35.04,22.21 L35.04,22.15 C35.0559523,19.2070121 33.9014494,16.3783707 31.8307536,14.287043 C29.7600579,12.1957153 26.9430015,11.0132256 24,11 C17.879012,11.0495153 12.9556433,16.0489725 13,22.17 L13,22.23 C13.0094527,23.4908936 13.2291331,24.7413819 13.65,25.93 C14.0774205,27.0992783 14.6884125,28.1929879 15.46,29.17 C15.8523307,29.6606955 16.2801465,30.1219344 16.74,30.55 C17.6429271,31.3495324 18.2986552,32.3903707 18.63,33.55 C18.63,33.55 19.04,34.39 19.04,38.02" id="Path" stroke="#5D3B01" stroke-width="2" stroke-linecap="round" stroke-linejoin="round"></path>
                </g>
            </g>
            <g id="Reactions/Maybe-48-Regular" transform="translate(192.000000, 0.000000)">
                <g id="Asset-47">
                    <rect id="Rectangle" fill="#FFFFFF" fill-rule="nonzero" opacity="0" x="0" y="0" width="48" height="48"></rect>
                    <circle id="Oval" fill="#DEB8DC" fill-rule="nonzero" cx="24.5" cy="24.5" r="16.5"></circle>
                    <path d="M22.66,8.1 C23.2709176,8.03152218 23.8852594,7.99813404 24.5,8 C32.3047052,7.99879612 39.0427457,13.4661432 40.6492263,21.1037242 C42.2557069,28.7413053 38.2911667,36.4598217 31.1473161,39.602881 C24.0034654,42.7459403 15.6345404,40.4537428 11.0893092,34.1091154 C6.54407802,27.7644879 7.06591139,19.1030351 12.34,13.35" id="Path" stroke="#523951" stroke-width="2" stroke-linecap="round" stroke-linejoin="round"></path>
                    <path d="M15,33.66 L26.48,31.74 C26.9821938,31.650676 27.4991709,31.7681286 27.9134719,32.065672 C28.3277729,32.3632155 28.6042188,32.8155849 28.68,33.32 C28.7959903,34.3391957 28.1221041,35.2809085 27.12,35.5 L22.31,36.31 C22.7244393,36.2442865 23.1478768,36.3483051 23.4846958,36.5985673 C23.8215148,36.8488294 24.0433109,37.2242302 24.1,37.64 C24.2338149,38.4772947 23.7033467,39.277345 22.88,39.48 C22.88,39.48 22.88,39.48 22.88,39.48 C23.326036,39.7139837 23.636866,40.1432252 23.72,40.64 C23.8393654,41.4176933 23.4030017,42.174057 22.67,42.46 C22.9198953,42.777026 23.0380763,43.1781253 23,43.58 C22.9148326,44.3777607 22.2952437,45.013872 21.5,45.12 L20.94,45.24 C19.4932108,45.5544163 18.0313063,45.7947293 16.56,45.96 C14.8849029,45.9835187 13.2111911,45.8529691 11.56,45.57 C10.4283621,45.3303496 9.50571663,44.5140172 9.13,43.42 C8.04,41.15 7.44,36.86 8.78,35.62 C10.12,34.38 9.89,34.69 10.53,33.22 C11.17,31.75 11.84,30.06 12.35,28.62 C12.86,27.18 13.06,26.53 14.01,26.18 C14.9589471,25.8989611 15.967318,26.3772909 16.35,27.29 C16.493139,28.2898712 16.4456354,29.3078049 16.21,30.29 C15.97,32.29 15.96,32.75 16.21,33.43" id="Path" fill="#DEB8DC" fill-rule="nonzero"></path>
                    <path d="M26.48,31.74 C26.9821938,31.650676 27.4991709,31.7681286 27.9134719,32.065672 C28.3277729,32.3632155 28.6042188,32.8155849 28.68,33.32 C28.7959903,34.3391957 28.1221041,35.2809085 27.12,35.5 L22.31,36.31 C22.7244393,36.2442865 23.1478768,36.3483051 23.4846958,36.5985673 C23.8215148,36.8488294 24.0433109,37.2242302 24.1,37.64 C24.2338149,38.4772947 23.7033467,39.277345 22.88,39.48 C23.326036,39.7139837 23.636866,40.1432252 23.72,40.64 C23.8393654,41.4176933 23.4030017,42.174057 22.67,42.46 C22.9198953,42.777026 23.0380763,43.1781253 23,43.58 C22.9148326,44.3777607 22.2952437,45.013872 21.5,45.12 L20.94,45.24 C19.4932108,45.5544163 18.0313063,45.7947293 16.56,45.96 C14.8849029,45.9835187 13.2111911,45.8529691 11.56,45.57 C10.4283621,45.3303496 9.50571663,44.5140172 9.13,43.42 C8.04,41.15 7.44,36.86 8.78,35.62 C10.12,34.38 9.89,34.69 10.53,33.22 C11.17,31.75 11.84,30.06 12.35,28.62 C12.86,27.18 13.06,26.53 14.01,26.18 C14.9589471,25.8989611 15.967318,26.3772909 16.35,27.29 C16.493139,28.2898712 16.4456354,29.3078049 16.21,30.29 C15.97,32.29 15.96,32.75 16.21,33.43 C19.3056516,32.920589 22.728985,32.3572556 26.48,31.74 Z" id="Path" stroke="#523951" stroke-width="2" stroke-linecap="round" stroke-linejoin="round"></path>
                    <g id="Group" transform="translate(13.000000, 8.724778)">
                        <path d="M0,1.2752223 C0.73302853,0.539268313 1.7127721,0.101055735 2.75,0.0452222951 C3.77934204,-0.107970213 4.82867122,0.131162628 5.69,0.715222295" id="Path" stroke="#523951" stroke-width="2" stroke-linecap="round" stroke-linejoin="round"></path>
                        <path d="M8,17.2752223 L11,17.2752223" id="Path" stroke="#523951" stroke-width="2" stroke-linecap="round" stroke-linejoin="round"></path>
                        <circle id="Oval" fill="#523951" fill-rule="nonzero" cx="4" cy="10.2752223" r="2"></circle>
                        <circle id="Oval" fill="#523951" fill-rule="nonzero" cx="16" cy="11.2752223" r="2"></circle>
                        <path d="M15,5.5652223 C15.96555,5.19400819 17.03445,5.19400819 18,5.5652223 C18.9994444,5.81392564 19.871888,6.42285567 20.45,7.2752223" id="Path" stroke="#523951" stroke-width="2" stroke-linecap="round" stroke-linejoin="round"></path>
                    </g>
                </g>
            </g>
            <g id="Reactions/Empathy-48-Regular" transform="translate(96.000000, 0.000000)">
                <g id="Asset-44">
                    <rect id="Rectangle" fill="#FFFFFF" fill-rule="nonzero" opacity="0" x="0" y="0" width="48" height="48"></rect>
                    <path d="M22.9,14.9 C20.4409948,12.2034196 16.6989119,11.0765448 13.1597624,11.9668665 C9.62061279,12.8571882 6.85718819,15.6206128 5.9668665,19.1597624 C5.07654481,22.6989119 6.20341963,26.4409948 8.9,28.9 L24,44 L39.1,28.93 C41.361287,26.6469752 42.3877088,23.4163702 41.8587948,20.246848 C41.3298807,17.0773258 39.3100737,14.3550602 36.43,12.93 C35.0857681,12.2597402 33.6020121,11.9170714 32.1,11.93 C29.4861236,11.9447933 26.985545,12.9989941 25.15,14.86 L24,16 L22.9,14.9 Z" id="Path" fill="#DF704D"></path>
                    <path d="M22.9,14.88 C19.0302126,11.1349466 12.874047,11.1787529 9.05794725,14.978498 C5.24184749,18.778243 5.17160145,24.9341637 8.9,28.82 L24,43.8 L39.1,28.8 C41.3371918,26.5437345 42.3499873,23.3476264 41.8205561,20.2146624 C41.2911248,17.0816983 39.2843546,14.3958586 36.43,13 C35.0857681,12.3297402 33.6020121,11.9870714 32.1,12 C29.4873409,12.0110481 26.9865622,13.061735 25.15,14.92 L24,16 L22.9,14.88 Z" id="Path" stroke="#77280C" stroke-width="2" stroke-linecap="round" stroke-linejoin="round"></path>
                </g>
            </g>
        </g>
        <g id="Group-3" transform="translate(0.000000, 48.000000)">
            <g id="Reactions/Like-16-Regular">
                <g id="Like_16_NO_Ring_Consumption">
                    <rect id="Rectangle" fill-rule="nonzero" x="0" y="0" width="16" height="16" rx="8"></rect>
                    <circle id="Oval" fill="#1485BD" cx="8" cy="8" r="7"></circle>
                    <path d="M11.93,7.25 L11.38,7.25 C11.33,7.25 11.23,7.06 10.98,6.79 C10.61,6.39 10.2,5.88 9.91,5.6 C9.19042334,4.97551285 8.60233298,4.21405481 8.18,3.36 C7.94,2.85 7.92,2.62 7.43,2.62 C7.02843826,2.67184992 6.73563286,3.02583854 6.76,3.43 C6.76,3.57 6.83,4.06 6.86,4.23 C7.07418609,5.01185785 7.41176371,5.7545286 7.86,6.43 L8.4,6.43 C8.15,6.43 4.12,6.43 4.12,6.43 C3.87487287,6.42638516 3.63959713,6.52635878 3.47205308,6.70532629 C3.30450903,6.8842938 3.22024833,7.12564319 3.24,7.37 C3.27202547,7.85682268 3.68226717,8.23177478 4.17,8.22 L4.33,8.22 C4.12310855,8.22523685 3.92677956,8.31248144 3.78423754,8.46252567 C3.64169553,8.61256989 3.56462712,8.81311204 3.57,9.02 C3.5735942,9.43754103 3.89400432,9.78393034 4.31,9.82 C4.31,9.82 4.31,9.82 4.31,9.82 C4.06040379,10.0109561 3.94572976,10.3303597 4.01686746,10.6364674 C4.08800516,10.9425751 4.33177584,11.1786782 4.64,11.24 C4.54418153,11.4063125 4.51218924,11.6018209 4.55,11.79 C4.65535688,12.1700607 5.00572694,12.4297468 5.4,12.42 L7.69,12.42 C7.99000476,12.4191619 8.28881895,12.3822298 8.58,12.31 L10,11.89 C10.09,11.89 11.34,11.89 11.9,11.89 C12.92,11.85 13.19,7.25 11.93,7.25 Z" id="Path" fill="#E6F7FF"></path>
                    <path d="M7.3,3.72 C7.47137537,4.69929414 7.86476629,5.6263284 8.45,6.43" id="Path" opacity="0.8"></path>
                    <path d="M5.94,11.9 L8.12,11.9 C8.76405272,11.7601098 9.39864485,11.579752 10.02,11.36 L11.38,11.36" id="Path" opacity="0.6"></path>
                    <path d="M7.43,6.43 C7.18,6.43 4.11,6.43 4.11,6.43 C3.85424865,6.42760935 3.61011046,6.53660463 3.4411466,6.72860901 C3.27218274,6.92061339 3.19511212,7.17662813 3.23,7.43 C3.26710187,7.91285569 3.67587134,8.28206682 4.16,8.27 L4.32,8.27 C4.11310855,8.27523685 3.91677956,8.36248144 3.77423754,8.51252567 C3.63169553,8.66256989 3.55462712,8.86311204 3.56,9.07 C3.5676124,9.48777766 3.88460919,9.83476064 4.3,9.88 C4.10628861,10.0319717 3.99221451,10.2637997 3.99,10.51 C3.99103005,10.8965368 4.26185958,11.2298654 4.64,11.31 C4.54348981,11.4797195 4.51152896,11.6785871 4.55,11.87 C4.6591302,12.2460862 5.00855383,12.5009599 5.4,12.49 L7.69,12.49 C7.99000476,12.4891619 8.28881895,12.4522298 8.58,12.38 L10,11.91 C10.09,11.91 11.34,11.91 11.9,11.91 C12.9,11.91 13.17,7.27 11.9,7.27 C11.7168055,7.28009097 11.5331945,7.28009097 11.35,7.27 C11.3,7.27 11.2,7.08 10.95,6.81 C10.58,6.41 10.17,5.9 9.88,5.62 C9.17017156,4.98974999 8.59236219,4.22500229 8.18,3.37 C8.10057614,3.18131035 7.99265211,3.00593381 7.86,2.85 C7.51350079,2.55860897 6.99740729,2.59865071 6.7,2.94 C6.59636624,3.05207989 6.51190225,3.18046517 6.45,3.32 C6.40954375,3.41656042 6.37937712,3.51711584 6.36,3.62 C6.33316952,3.90193465 6.35687455,4.18639501 6.43,4.46 C6.49423721,4.74763655 6.58461264,5.02880456 6.7,5.3 C6.88814357,5.65329907 7.10911776,5.98810845 7.36,6.3 C7.390855,6.31901156 7.41525248,6.3468944 7.43,6.38" id="Path" stroke="#004B7C" stroke-linecap="round" stroke-linejoin="round"></path>
                </g>
            </g>
            <g id="Reactions/Praise-16-Regular" transform="translate(16.000000, 0.000000)">
                <g id="Praise_16_NO_Ring_Consumption">
                    <g id="Group">
                        <rect id="Rectangle" fill-rule="nonzero" x="0" y="0" width="16" height="16" rx="8"></rect>
                        <mask id="mask-2" fill="white">
                            <use xlink:href="#path-1"></use>
                        </mask>
                        <use id="Mask" fill="#D8D8D8" fill-rule="nonzero" xlink:href="#path-1"></use>
                        <g mask="url(#mask-2)">
                            <circle id="Oval" fill="#6DAE4F" cx="8" cy="8" r="7"></circle>
                            <path d="M8,1 C11.8659932,1 15,4.13400675 15,8 C15,11.8659932 11.8659932,15 8,15 C4.13400675,15 1,11.8659932 1,8 C1,4.13400675 4.13400675,1 8,1 Z M8,0 C3.581722,-2.705415e-16 5.41083001e-16,3.581722 0,8 C-5.41083001e-16,12.418278 3.581722,16 8,16 C12.418278,16 16,12.418278 16,8 C16,5.87826808 15.1571453,3.84343678 13.6568542,2.34314575 C12.1565632,0.842854723 10.1217319,1.2991861e-16 8,0 Z" id="Shape" fill="#FFFFFF" fill-rule="nonzero"></path>
                            <g id="Group-2" transform="translate(1.537529, 3.876102)">
                                <path d="M10.595,5.34766949 C10.5768144,4.56193458 10.4557849,3.78196658 10.235,3.02766949 C9.62969754,2.54116707 9.16963316,1.89776877 8.905,1.16766949 C8.745,0.637669487 8.635,0.447669487 8.165,0.437669487 C7.97174706,0.455243109 7.7937694,0.550078993 7.67140269,0.700684175 C7.54903598,0.851289356 7.49264146,1.04491153 7.515,1.23766949 C7.52131927,1.4786137 7.54135168,1.7190027 7.575,1.95766949 C7.71219528,2.61330198 7.90626268,3.25573199 8.155,3.87766949 L3.655,0.457669487 C3.50320875,0.309809668 3.29595281,0.233061418 3.08446938,0.246398211 C2.87298595,0.259735003 2.67701359,0.361912066 2.545,0.527669487 C2.44473807,0.695273895 2.41686541,0.896418107 2.46777452,1.08497037 C2.51868363,1.27352262 2.64400623,1.43330412 2.815,1.52766949 L5.065,3.22766949 L5.655,3.78766949 L2.085,1.07766949 C1.8895652,0.880579854 1.59720242,0.815445086 1.33658522,0.910932039 C1.07596801,1.00641899 0.894889192,1.24501697 0.873044451,1.52171516 C0.85119971,1.79841336 0.992595007,2.06246999 1.235,2.19766949 L3.485,3.89766949 L4.835,4.89766949 L1.915,2.70766949 C1.76320875,2.55980967 1.55595281,2.48306142 1.34446938,2.49639821 C1.13298595,2.509735 0.937013589,2.61191207 0.805,2.77766949 C0.495,3.17766949 0.745,3.58766949 1.065,3.83766949 L3.315,5.52766949 L4.445,6.37766949 L2.195,4.67766949 C2.05485778,4.52508983 1.85717238,4.43824416 1.65,4.43824416 C1.44282762,4.43824416 1.24514222,4.52508983 1.105,4.67766949 C0.980867288,4.85065991 0.936112408,5.06825833 0.981897014,5.27619675 C1.02768162,5.48413517 1.15969004,5.66281323 1.345,5.76766949 L5.445,8.76766949 C6.03942029,9.21495159 7.515,9.60136269 8.165,9.03621554" id="Path" stroke="#165209" stroke-width="1.5" stroke-linecap="round" stroke-linejoin="round"></path>
                                <path d="M11.075,6.02766949 L10.655,5.65766949 C10.6003711,4.92167822 10.4281895,4.19919069 10.145,3.51766949 C9.5595693,2.83089364 9.14494173,2.01534519 8.935,1.13766949 C8.775,0.607669487 8.665,0.417669487 8.195,0.407669487 C8.00174706,0.425243109 7.8237694,0.520078993 7.70140269,0.670684175 C7.57903598,0.821289356 7.52264146,1.01491153 7.545,1.20766949 C7.55131927,1.4486137 7.57135168,1.6890027 7.605,1.92766949 C7.72058135,2.55924951 7.90501516,3.17626442 8.155,3.76766949 L7.965,3.65766949 L3.655,0.347669487 C3.50320875,0.199809668 3.29595281,0.123061418 3.08446938,0.136398211 C2.87298595,0.149735003 2.67701359,0.251912066 2.545,0.417669487 C2.42731292,0.59063513 2.38949053,0.805780585 2.4411301,1.00851371 C2.49276967,1.21124683 2.62890777,1.38208159 2.815,1.47766949 L5.015,3.16766949 L5.655,3.67766949 L2.085,0.967669487 C1.93456349,0.818646964 1.72814166,0.740161674 1.51669846,0.751591035 C1.30525527,0.763020397 1.10849636,0.863299242 0.975,1.02766949 C0.859749828,1.20026592 0.822275035,1.4133269 0.871715116,1.61489031 C0.921155198,1.81645372 1.05296564,1.98799191 1.235,2.08766949 L3.485,3.78766949 L4.835,4.78766949 L1.915,2.60766949 C1.76608276,2.45564665 1.55892547,2.37509342 1.34642758,2.3865798 C1.1339297,2.39806617 0.936662529,2.50048017 0.805,2.66766949 C0.686574732,2.83935666 0.647242544,3.05349999 0.696928171,3.25606446 C0.746613797,3.45862894 0.880571649,3.63026717 1.065,3.72766949 L3.315,5.41766949 L4.445,6.26766949 L2.195,4.57766949 C2.05823047,4.41924527 1.85929438,4.32817453 1.65,4.32817453 C1.44070562,4.32817453 1.24176953,4.41924527 1.105,4.57766949 C0.981184819,4.74903995 0.936581831,4.965186 0.982445072,5.17157058 C1.02830831,5.37795517 1.16025758,5.55486738 1.345,5.65766949 L5.445,8.76766949 C6.03942029,9.21495159 6.79109725,9.399257 7.525,9.27766949 C8.06354857,9.59001997 8.53354857,9.59001997 8.935,9.27766949 C9.53717715,8.80914376 9.3392331,8.76688315 9.785,8.14766949 C10.2897616,7.48929489 10.7222487,6.77854088 11.075,6.02766949 Z" id="Path" fill="#DCF0CB"></path>
                                <path d="M10.595,5.34766949 C10.5768144,4.56193458 10.4557849,3.78196658 10.235,3.02766949 C9.62969754,2.54116707 9.16963316,1.89776877 8.905,1.16766949 C8.745,0.637669487 8.635,0.447669487 8.165,0.437669487 C7.97174706,0.455243109 7.7937694,0.550078993 7.67140269,0.700684175 C7.54903598,0.851289356 7.49264146,1.04491153 7.515,1.23766949 C7.52131927,1.4786137 7.54135168,1.7190027 7.575,1.95766949 C7.71219528,2.61330198 7.90626268,3.25573199 8.155,3.87766949 L3.655,0.457669487 C3.50320875,0.309809668 3.29595281,0.233061418 3.08446938,0.246398211 C2.87298595,0.259735003 2.67701359,0.361912066 2.545,0.527669487 C2.44473807,0.695273895 2.41686541,0.896418107 2.46777452,1.08497037 C2.51868363,1.27352262 2.64400623,1.43330412 2.815,1.52766949 L5.065,3.22766949 L5.655,3.78766949 L2.085,1.07766949 C1.8895652,0.880579854 1.59720242,0.815445086 1.33658522,0.910932039 C1.07596801,1.00641899 0.894889192,1.24501697 0.873044451,1.52171516 C0.85119971,1.79841336 0.992595007,2.06246999 1.235,2.19766949 L3.485,3.89766949 L4.835,4.89766949 L1.915,2.70766949 C1.76320875,2.55980967 1.55595281,2.48306142 1.34446938,2.49639821 C1.13298595,2.509735 0.937013589,2.61191207 0.805,2.77766949 C0.495,3.17766949 0.745,3.58766949 1.065,3.83766949 L3.315,5.52766949 L4.445,6.37766949 L2.195,4.67766949 C2.05485778,4.52508983 1.85717238,4.43824416 1.65,4.43824416 C1.44282762,4.43824416 1.24514222,4.52508983 1.105,4.67766949 C0.980867288,4.85065991 0.936112408,5.06825833 0.981897014,5.27619675 C1.02768162,5.48413517 1.15969004,5.66281323 1.345,5.76766949 L5.445,8.76766949 C6.03942029,9.21495159 7.43109725,9.51023799 8.165,9.38865048" id="Path" stroke="#165209" stroke-width="0.5" stroke-linecap="round" stroke-linejoin="round"></path>
                            </g>
                            <g id="Group-3" transform="translate(3.947374, 5.167586)">
                                <path d="M10.82,6.22 C10.6177306,6.00352378 10.4612689,5.74842322 10.36,5.47 C10.36,5.25 10.3,5.04 10.26,4.82 C10.228742,4.43625831 10.1052386,4.06574815 9.9,3.74 C9.32040128,3.04935134 8.90650719,2.23524561 8.69,1.36 C8.53,0.83 8.42,0.64 7.95,0.63 C7.75674706,0.647573622 7.5787694,0.742409506 7.45640269,0.893014688 C7.33403598,1.04361987 7.27764146,1.23724205 7.3,1.43 C7.30631927,1.67094421 7.32635168,1.91133321 7.36,2.15 C7.54,3.07 7.73,3.83 7.75,3.88 L3.46,0.67 C3.30970507,0.519120901 3.10169329,0.44030676 2.8891529,0.453710208 C2.67661251,0.467113656 2.48014982,0.571435196 2.35,0.74 C2.24893473,0.906373938 2.2195443,1.10658136 2.26852861,1.29498256 C2.31751292,1.48338376 2.44069717,1.64392177 2.61,1.74 L4.86,3.44 L5.54,4 L1.94,1.29 C1.79108276,1.13797716 1.58392547,1.05742394 1.37142758,1.06891031 C1.1589297,1.08039668 0.961662529,1.18281069 0.83,1.35 C0.711574732,1.52168717 0.672242544,1.7358305 0.721928171,1.93839498 C0.771613797,2.14095945 0.905571649,2.31259768 1.09,2.41 L3.34,4.11 L4.69,5.11 L1.76,2.92 C1.60860971,2.77371637 1.40208052,2.69883654 1.19211685,2.71410663 C0.982153167,2.72937672 0.788631566,2.83335114 0.66,3 C0.35,3.4 0.59,3.81 0.92,4.06 L3.17,5.74 L4.29,6.59 L2,4.89 C1.7085374,4.63678992 1.27030696,4.65431913 1,4.93 C0.876235857,5.09566999 0.82744028,5.30556946 0.865435491,5.50884383 C0.903430702,5.71211821 1.02474997,5.89022051 1.2,6 L5.2,9 C5.53368132,9.25053453 5.92017528,9.42154956 6.33,9.5 L6.91,9.59 C7.21469748,9.63517187 7.5091389,9.73331901 7.78,9.88 C7.9666926,9.97117574 8.18079132,9.9890173 8.38,9.93 C9.08326588,9.68198209 9.69856046,9.23354706 10.15,8.64 C10.5728029,8.05556063 10.8160597,7.3605413 10.85,6.64 C10.8753834,6.49969965 10.8650669,6.35526818 10.82,6.22 Z" id="Path" stroke="#165209" stroke-width="1.5" stroke-linecap="round" stroke-linejoin="round"></path>
                                <path d="M10.86,6.17 L10.41,5.83 C10.3601736,5.09327121 10.1878085,4.37001343 9.9,3.69 C9.3186009,3.00054345 8.90448317,2.18599784 8.69,1.31 C8.53,0.78 8.42,0.59 7.95,0.58 C7.75674706,0.597573622 7.5787694,0.692409506 7.45640269,0.843014688 C7.33403598,0.993619869 7.27764146,1.18724205 7.3,1.38 C7.30631927,1.62094421 7.32635168,1.86133321 7.36,2.1 C7.54,3.03 7.73,3.79 7.75,3.83 L3.46,0.62 C3.30820875,0.472140181 3.10095281,0.395391931 2.88946938,0.408728724 C2.67798595,0.422065517 2.48201359,0.524242579 2.35,0.69 C2.04,1.1 2.29,1.5 2.61,1.75 L4.86,3.44 L5.54,4 L1.94,1.24 C1.78820875,1.09214018 1.58095281,1.01539193 1.36946938,1.02872872 C1.15798595,1.04206552 0.962013589,1.14424258 0.83,1.31 C0.52,1.71 0.77,2.12 1.09,2.37 L3.34,4.06 L4.69,5.06 L1.76,2.87 C1.60996462,2.72258043 1.40428264,2.64597565 1.19436671,2.65933394 C0.98445077,2.67269222 0.790138298,2.7747512 0.66,2.94 C0.538239758,3.11069799 0.496938264,3.32599337 0.546887223,3.52963144 C0.596836181,3.7332695 0.733072914,3.90501777 0.92,4 L3.17,5.69 L4.29,6.54 L2,4.85 C1.71233514,4.58620183 1.26567567,4.60406821 1,4.89 C0.858567237,5.0563803 0.799046294,5.27733912 0.837768771,5.49224887 C0.876491248,5.70715862 1.0093901,5.89344721 1.2,6 L5.2,9 C5.80647042,9.36166386 6.49433637,9.56458432 7.2,9.59 C7.45603912,9.74647902 7.72345613,9.88353024 8,10 C8.80229517,9.84873758 9.51717742,9.39836177 10,8.74 C10.5270633,7.98346664 10.8255803,7.09138688 10.86,6.17 Z" id="Path" fill="#DDF6D1"></path>
                                <path d="M8.02,4.12 L7.37,3.59" id="Path" stroke="#165209" stroke-width="0.5" stroke-linecap="round" stroke-linejoin="round"></path>
                                <path d="M1.19,5.15 C1.76,5.58 5.62,8.58 6.08,8.74 C6.55522233,8.9101888 7.07477767,8.9101888 7.55,8.74 C7.72505968,8.66769305 7.88461295,8.56245578 8.02,8.43" id="Path" opacity="0.5"></path>
                                <path d="M7.85,1.34 C7.91223095,2.15726582 8.0631172,2.96534552 8.3,3.75" id="Path" opacity="0.8"></path>
                                <path d="M10.82,6.22 C10.6177306,6.00352378 10.4612689,5.74842322 10.36,5.47 C10.36,5.25 10.3,5.04 10.26,4.82 C10.228742,4.43625831 10.1052386,4.06574815 9.9,3.74 C9.32040128,3.04935134 8.90650719,2.23524561 8.69,1.36 C8.53,0.83 8.42,0.64 7.95,0.63 C7.75674706,0.647573622 7.5787694,0.742409506 7.45640269,0.893014688 C7.33403598,1.04361987 7.27764146,1.23724205 7.3,1.43 C7.30631927,1.67094421 7.32635168,1.91133321 7.36,2.15 C7.54,3.07 7.73,3.83 7.75,3.88 L3.46,0.67 C3.30970507,0.519120901 3.10169329,0.44030676 2.8891529,0.453710208 C2.67661251,0.467113656 2.48014982,0.571435196 2.35,0.74 C2.24893473,0.906373938 2.2195443,1.10658136 2.26852861,1.29498256 C2.31751292,1.48338376 2.44069717,1.64392177 2.61,1.74 L4.86,3.44 L5.54,4 L1.94,1.29 C1.79108276,1.13797716 1.58392547,1.05742394 1.37142758,1.06891031 C1.1589297,1.08039668 0.961662529,1.18281069 0.83,1.35 C0.711574732,1.52168717 0.672242544,1.7358305 0.721928171,1.93839498 C0.771613797,2.14095945 0.905571649,2.31259768 1.09,2.41 L3.34,4.11 L4.69,5.11 L1.76,2.92 C1.60860971,2.77371637 1.40208052,2.69883654 1.19211685,2.71410663 C0.982153167,2.72937672 0.788631566,2.83335114 0.66,3 C0.35,3.4 0.59,3.81 0.92,4.06 L3.17,5.74 L4.29,6.59 L2,4.89 C1.7085374,4.63678992 1.27030696,4.65431913 1,4.93 C0.876235857,5.09566999 0.82744028,5.30556946 0.865435491,5.50884383 C0.903430702,5.71211821 1.02474997,5.89022051 1.2,6 L5.2,9 C5.53368132,9.25053453 5.92017528,9.42154956 6.33,9.5 L6.91,9.59 C7.21469748,9.63517187 7.5091389,9.73331901 7.78,9.88 C7.9666926,9.97117574 8.18079132,9.9890173 8.38,9.93 C9.08326588,9.68198209 9.69856046,9.23354706 10.15,8.64 C10.5728029,8.05556063 10.8160597,7.3605413 10.85,6.64 C10.8753834,6.49969965 10.8650669,6.35526818 10.82,6.22 Z" id="Path" stroke="#165209" stroke-width="0.5" stroke-linecap="round" stroke-linejoin="round"></path>
                            </g>
                            <path d="M8.82863281,2.81808043 L8.09863281,3.73808043" id="Path" stroke="#165209" stroke-linecap="round" stroke-linejoin="round"></path>
                            <path d="M5.89333008,1.62472534 L5.82858276,2.81808043" id="Path-Copy" stroke="#165209" stroke-linecap="round" stroke-linejoin="round" transform="translate(5.693583, 1.858080) scale(-1, 1) translate(-5.693583, -1.858080) "></path>
                            <path d="M7.53752881,1.63295654 L6.88924553,3.19335509" id="Path" stroke="#165209" stroke-linecap="round" stroke-linejoin="round"></path>
                        </g>
                    </g>
                </g>
            </g>
            <g id="Reactions/Empathy-16-Regular" transform="translate(32.000000, 0.000000)">
                <g id="Empathy_16_NO_Ring_Consumption">
                    <rect id="Rectangle" fill-rule="nonzero" x="0" y="0" width="16" height="16" rx="8"></rect>
                    <circle id="Oval" fill="#DF704D" cx="8" cy="8" r="7"></circle>
                    <path d="M7.71,5 C7.21846245,4.50719696 6.55103448,4.23023647 5.855,4.23023647 C5.15896552,4.23023647 4.49153755,4.50719696 4,5 C3.50231429,5.49706598 3.22266521,6.1716042 3.22266521,6.875 C3.22266521,7.5783958 3.50231429,8.25293402 4,8.75 L8,12.75 L12,8.75 C12.4976857,8.25293402 12.7773348,7.5783958 12.7773348,6.875 C12.7773348,6.1716042 12.4976857,5.49706598 12,5 C11.511622,4.50551387 10.8450006,4.22805521 10.15,4.23 C9.45455047,4.22578197 8.78708144,4.50359341 8.3,5 L8,5.3 L7.71,5 Z" id="Path" stroke="#77280C" fill="#FFF3F0"></path>
                    <path d="M11.43,5.18 C11.6484452,5.3509723 11.8289353,5.56551715 11.96,5.81 C12.86,7.48 11.36,8.53 10.42,9.48 C9.82,10.09 9.2,10.7 8.57,11.28" id="Path" opacity="0.6"></path>
                    <path d="M5.79,4.81 C5.52212137,4.7973067 5.25422135,4.83460924 5,4.92 C4.57517148,5.05741912 4.21797488,5.35032033 4,5.74 C3.81695888,6.13345689 3.73777471,6.56724845 3.77,7 C3.76514703,7.02980374 3.76514703,7.06019626 3.77,7.09" id="Path" opacity="0.4"></path>
                    <path d="M7.71,5 C7.22112534,4.5022177 6.55270025,4.22180542 5.855,4.22180542 C5.15729975,4.22180542 4.48887466,4.5022177 4,5 C2.99648879,6.02920467 2.99648879,7.67079533 4,8.7 L8,12.7 L12,8.7 C13.0035112,7.67079533 13.0035112,6.02920467 12,5 C11.5126411,4.50278975 10.846228,4.22181557 10.15,4.22 C9.45331373,4.21955475 8.78606014,4.50088329 8.3,5 L8,5.25 L7.71,5 Z" id="Path" stroke="#77280C" stroke-linecap="round" stroke-linejoin="round"></path>
                    <path d="M7.55,5.49 C7.63902596,5.60021373 7.71927195,5.71723913 7.79,5.84 C8.13,6.38 8.99,5.84 8.65,5.33 C8.53482445,5.13974457 8.40439621,4.95915162 8.26,4.79 C7.86,4.28 7.15,5 7.55,5.49 Z" id="Path" fill="#77280C"></path>
                </g>
            </g>
            <g id="Reactions/Interest-16-Regular" transform="translate(48.000000, 0.000000)">
                <g id="Interest_16_NO_Ring_Consumption">
                    <rect id="Rectangle" fill-rule="nonzero" x="0" y="0" width="16" height="16" rx="8"></rect>
                    <circle id="Oval" fill="#F5BB5C" cx="8" cy="8" r="7"></circle>
                    <g id="Group-4" transform="translate(4.000000, 4.000000)">
                        <path d="M4.82,9.4 L3.22,9.4 C2.92176624,9.4 2.68,9.15823376 2.68,8.86 L2.68,7.53 L5.36,7.53 L5.36,8.86 C5.36,9.15823376 5.11823376,9.4 4.82,9.4 Z" id="Path" fill="#FFE1B2"></path>
                        <path d="M2.69,7.79 L2.69,7.53 C2.68941301,7.19034063 2.63542028,6.85288604 2.53,6.53 C2.38986797,6.24696665 2.21153574,5.98451545 2,5.75 C1.25425242,5.13711204 0.818460938,4.22524584 0.81,3.26 C0.81,1.48716595 2.24716595,0.05 4.02,0.05 C5.79283405,0.05 7.23,1.48716595 7.23,3.26 C7.21267479,4.24615901 6.7629295,5.17490133 6,5.8 C6.07,5.75 5.92,5.86 5.82,6 C5.72156937,6.14504608 5.64413666,6.30327814 5.59,6.47 C5.48813287,6.79346578 5.43752041,7.13088221 5.44,7.47 L5.44,7.73" id="Path" fill="#FCF0DE"></path>
                        <path d="M3.46,0.78 C2.99358765,0.858580327 2.56538454,1.08672133 2.24,1.43 C1.89882763,1.76135887 1.66239275,2.18555085 1.56,2.65" id="Path" stroke="#FFFFFF" stroke-width="2" stroke-linecap="round" stroke-linejoin="round"></path>
                        <path d="M3.53,6 C4.32810131,6.16467201 5.15683857,5.93797706 5.76,5.39 C6.36072106,4.84902348 6.69189124,4.07038175 6.6648951,3.26242594 C6.63789897,2.45447013 6.2554921,1.69967107 5.62,1.2" id="Path"></path>
                        <path d="M5.36,5.65 C4.99799324,6.10144538 4.81945801,6.67275813 4.86,7.25" id="Path"></path>
                        <path d="M4.82,9.4 L3.22,9.4 C2.92176624,9.4 2.68,9.15823376 2.68,8.86 L2.68,7.53 L5.36,7.53 L5.36,8.86 C5.36,9.15823376 5.11823376,9.4 4.82,9.4 Z" id="Path" stroke="#5D3B01" stroke-linecap="round" stroke-linejoin="round"></path>
                        <path d="M2.68,7.79 L2.68,7.53 C2.68264453,7.19087053 2.63202824,6.85342855 2.53,6.53 C2.46486055,6.36235542 2.3774054,6.20426342 2.27,6.06 C2.16310955,5.9033007 2.03900241,5.75906808 1.9,5.63 C1.76659561,5.50993948 1.64287793,5.37953435 1.53,5.24 C1.06697357,4.67606619 0.812668321,3.96966273 0.81,3.24 C0.810000026,1.46716597 2.24716597,0.0300000478 4.02,0.0300000478 C5.79283403,0.0300000478 7.22999997,1.46716597 7.23,3.24 C7.218128,3.9697207 6.96099032,4.67420748 6.5,5.24 C6.33052405,5.44947165 6.13947165,5.64052405 5.93,5.81 C5.85833948,5.87506807 5.79149715,5.94525253 5.73,6.02 C5.63459309,6.16535387 5.56050683,6.32362906 5.51,6.49 C5.40813287,6.81346578 5.35752041,7.15088221 5.36,7.49 L5.36,7.75" id="Path" stroke="#5D3B01" stroke-linecap="round" stroke-linejoin="round"></path>
                    </g>
                    <path d="M4.59927612,2.6362089 L5.21072362,3.4274939" id="Path" stroke="#5D3B01" stroke-linecap="round" stroke-linejoin="round"></path>
                    <path d="M11.4154761,2.63185467 L10.8097053,3.4274939" id="Path" stroke="#5D3B01" stroke-linecap="round" stroke-linejoin="round"></path>
                    <path d="M8,1.5 L8,2.759552" id="Path" stroke="#5D3B01" stroke-linecap="round" stroke-linejoin="round"></path>
                </g>
            </g>
            <g id="Reactions/Maybe-16-Regular" transform="translate(64.000000, 0.000000)">
                <g id="Maybe_16_NO_Ring_Consumption">
                    <rect id="Rectangle" fill-rule="nonzero" x="0" y="0" width="16" height="16" rx="8"></rect>
                    <circle id="Oval" fill="#DEB8DC" cx="8" cy="8" r="7"></circle>
                    <mask id="mask-4" fill="white">
                        <use xlink:href="#path-3"></use>
                    </mask>
                    <g id="Mask" fill-rule="nonzero"></g>
                    <g id="Group" mask="url(#mask-4)">
                        <g transform="translate(2.000000, 2.000000)">
                            <circle id="Oval" stroke="none" fill="#F9F0F8" fill-rule="evenodd" cx="6.04" cy="5.96" r="5.06"></circle>
                            <path d="M5.81143188,1 C6.00130133,0.990039116 5.85013055,0.990039116 6.04,1 C8.43567005,1.02670115 10.4842566,2.72986596 10.947937,5.08038685 C11.4116173,7.43090773 10.1632848,9.78444614 7.95722246,10.7189176 C5.75116012,11.653389 3.19210672,10.9126307 1.82632558,8.94423296 C0.460544441,6.97583518 0.515472412,4.65 2.04559326,2.88250732" id="Path" stroke="#523951" stroke-width="1" fill="none" stroke-linecap="round" stroke-linejoin="round"></path>
                            <path d="M3.35,8.67 L6.74,8.1 C6.88725426,8.07705091 7.03758224,8.11374491 7.15770253,8.20195825 C7.27782283,8.29017159 7.357826,8.42262703 7.38,8.57 C7.41254046,8.86948463 7.21423625,9.14538613 6.92,9.21 L5.51,9.45 C5.76123314,9.41432155 5.99390604,9.58882622 6.03,9.84 C6.07907026,10.0884021 5.91816738,10.3297564 5.67,10.38 C5.80610419,10.4481233 5.89970091,10.5791587 5.92,10.73 C5.95794765,10.9582982 5.82759019,11.1811674 5.61,11.26 C5.68131731,11.3514199 5.72003484,11.4640528 5.72,11.58 C5.69090202,11.8172698 5.5065731,12.005695 5.27,12.04 L5.11,12.04 C4.6846152,12.1358825 4.2538324,12.2060099 3.82,12.25 C3.32434477,12.2585317 2.82894796,12.2217117 2.34,12.14 C2.00859724,12.0658753 1.73746023,11.8286304 1.62,11.51 C1.3,10.84 1.13,9.57 1.52,9.21 C1.91,8.85 1.85,8.93 2.04,8.5 C2.23,8.07 2.42,7.57 2.57,7.15 C2.72,6.73 2.78,6.53 3.06,6.43 C3.33794452,6.34518363 3.635198,6.48304031 3.75,6.75 C3.80675327,7.04731589 3.80675327,7.35268411 3.75,7.65 C3.68,8.25 3.67,8.37 3.75,8.57" id="Path" stroke="#523951" stroke-width="1" fill="none" stroke-linecap="round" stroke-linejoin="round"></path>
                            <path d="M5.19582401,6.48576904 L5.94582401,6.48576904" id="Path" stroke="#523951" stroke-width="1" fill="none" stroke-linecap="round" stroke-linejoin="round"></path>
                            <circle id="Oval" stroke="none" fill="#523951" fill-rule="evenodd" cx="3.95474945" cy="4.38474945" r="1"></circle>
                            <circle id="Oval" stroke="none" fill="#523951" fill-rule="evenodd" cx="7.68606659" cy="4.92352875" r="1"></circle>
                            <path d="M7.383489,3.29171631 C7.66993433,3.18158311 7.98704367,3.18158311 8.273489,3.29171631 C8.56660826,3.37067938 8.81975975,3.55608611 8.983489,3.81171631" id="Path" stroke="#523951" stroke-width="0.8" fill="none" stroke-linecap="round" stroke-linejoin="round"></path>
                            <path d="M2.72725098,1.61138916 C2.94625348,1.39948167 3.23320457,1.27194785 3.53725098,1.25138916 C3.8418982,1.21057953 4.15100824,1.28163931 4.40725098,1.45138916" id="Path" stroke="#523951" stroke-width="0.8" fill="none" stroke-linecap="round" stroke-linejoin="round" transform="translate(3.567251, 1.425766) rotate(4.000000) translate(-3.567251, -1.425766) "></path>
                            <path d="M3.35,8.67 L6.74,8.1 C6.88725426,8.07705091 7.03758224,8.11374491 7.15770253,8.20195825 C7.27782283,8.29017159 7.357826,8.42262703 7.38,8.57 C7.41254046,8.86948463 7.21423625,9.14538613 6.92,9.21 L5.51,9.45 C5.76123314,9.41432155 5.99390604,9.58882622 6.03,9.84 C6.07907026,10.0884021 5.91816738,10.3297564 5.67,10.38 C5.80610419,10.4481233 5.89970091,10.5791587 5.92,10.73 C5.95794765,10.9582982 5.82759019,11.1811674 5.61,11.26 C5.68131731,11.3514199 5.72003484,11.4640528 5.72,11.58 C5.69090202,11.8172698 5.5065731,12.005695 5.27,12.04 L5.11,12.04 C4.6846152,12.1358825 4.2538324,12.2060099 3.82,12.25 C3.32434477,12.2585317 2.82894796,12.2217117 2.34,12.14 C2.00859724,12.0658753 1.73746023,11.8286304 1.62,11.51 C1.3,10.84 1.13,9.57 1.52,9.21 C1.91,8.85 1.85,8.93 2.04,8.5 C2.23,8.07 2.42,7.57 2.57,7.15 C2.72,6.73 2.78,6.53 3.06,6.43 C3.33794452,6.34518363 3.635198,6.48304031 3.75,6.75 C3.80675327,7.04731589 3.80675327,7.35268411 3.75,7.65 C3.68,8.25 3.67,8.37 3.75,8.57" id="Path" stroke="none" fill="#F9F0F8" fill-rule="evenodd"></path>
                            <path d="M3.35,8.67 L6.74,8.1 C6.88725426,8.07705091 7.03758224,8.11374491 7.15770253,8.20195825 C7.27782283,8.29017159 7.357826,8.42262703 7.38,8.57 C7.41254046,8.86948463 7.21423625,9.14538613 6.92,9.21 L5.51,9.45 C5.76123314,9.41432155 5.99390604,9.58882622 6.03,9.84 C6.07907026,10.0884021 5.91816738,10.3297564 5.67,10.38 C5.80610419,10.4481233 5.89970091,10.5791587 5.92,10.73 C5.95794765,10.9582982 5.82759019,11.1811674 5.61,11.26 C5.68131731,11.3514199 5.72003484,11.4640528 5.72,11.58 C5.69090202,11.8172698 5.5065731,12.005695 5.27,12.04 L5.11,12.04 C4.6846152,12.1358825 4.2538324,12.2060099 3.82,12.25 C3.32434477,12.2585317 2.82894796,12.2217117 2.34,12.14 C2.00859724,12.0658753 1.73746023,11.8286304 1.62,11.51 C1.3,10.84 1.13,9.57 1.52,9.21 C1.91,8.85 1.85,8.93 2.04,8.5 C2.23,8.07 2.42,7.57 2.57,7.15 C2.72,6.73 2.78,6.53 3.06,6.43 C3.33794452,6.34518363 3.635198,6.48304031 3.75,6.75 C3.80675327,7.04731589 3.80675327,7.35268411 3.75,7.65 C3.68,8.25 3.67,8.37 3.75,8.57" id="Path" stroke="#523951" stroke-width="0.5" fill="none" stroke-linecap="round" stroke-linejoin="round"></path>
                        </g>
                    </g>
                </g>
            </g>
        </g>
    </g>
</svg>